<?xml version="1.0" encoding="utf-8"?>
<!-- Generator: Adobe Illustrator 18.1.1, SVG Export Plug-In . SVG Version: 6.00 Build 0)  -->
<!DOCTYPE svg PUBLIC "-//W3C//DTD SVG 1.1//EN" "http://www.w3.org/Graphics/SVG/1.1/DTD/svg11.dtd">
<svg version="1.1" id="レイヤー_1" xmlns="http://www.w3.org/2000/svg" xmlns:xlink="http://www.w3.org/1999/xlink" x="0px"
	 y="0px" viewBox="0 395.4 1163.1 137.1" enable-background="new 0 395.4 1163.1 137.1" xml:space="preserve">
<linearGradient id="SVGID_1_" gradientUnits="userSpaceOnUse" x1="6.9927" y1="13.9423" x2="6.9927" y2="-4.314628e-02" gradientTransform="matrix(9.7959 0 0 9.7959 0 395.4227)">
	<stop  offset="0" style="stop-color:#4D4D4D"/>
	<stop  offset="1" style="stop-color:#E6E6E6"/>
</linearGradient>
<rect y="395" fill="url(#SVGID_1_)" width="137" height="137"/>
<rect x="274" y="395" fill="none" width="137" height="138"/>
<g>
	<path fill="#CCCCCC" d="M372.1,425c16.6,0,28.9,12.5,28.9,29.1v19.6c0,16.6-12.3,29.3-28.9,29.3h-58.7c-16.6,0-29.4-12.6-29.4-29.3
		v-19.6c0-16.6,12.8-29.1,29.4-29.1H372.1 M372.1,415h-58.7c-21.5,0-39.4,17.6-39.4,39.2v19.6c0,21.6,17.8,39.2,39.4,39.2h58.7
		c21.5,0,38.9-17.6,38.9-39.2v-19.6C411,432.6,393.6,415,372.1,415L372.1,415z"/>
</g>
<rect x="686" y="395" fill="none" width="137" height="138"/>
<g>
	<path fill="#CCCCCC" d="M783.6,425c16.6,0,29.4,12.5,29.4,29.1v19.6c0,16.6-12.7,29.3-29.4,29.3h-58.8c-16.6,0-29.9-12.6-29.9-29.3
		v-19.6c0-16.6,13.2-29.1,29.9-29.1H784 M783.6,415h-58.8c-21.6,0-38.9,17.6-38.9,39.2v19.6c0,21.6,17.3,39.2,38.9,39.2h58.8
		c21.6,0,39.4-17.6,39.4-39.2v-19.6C823,432.6,805.2,415,783.6,415L783.6,415z"/>
</g>
<rect x="411" y="395" fill="none" width="137" height="138"/>
<g>
	<path fill="#CCCCCC" d="M509.3,425c16.6,0,29.7,12.5,29.7,29.1V503H421v-48.9c0-16.6,12.9-29.1,29.5-29.1H509 M509.3,415h-58.7
		c-21.5,0-39.5,17.6-39.5,39.2V513h137v-58.8C548,432.6,530.8,415,509.3,415L509.3,415z"/>
</g>
<rect x="549" y="395" fill="none" width="136" height="138"/>
<g>
	<path fill="#CCCCCC" d="M676,425v48.8c0,16.6-13,29.2-29.6,29.2h-58.7c-16.6,0-29.7-12.6-29.7-29.2V425H676 M685.5,415H549v58.8
		c0,21.6,17.2,39.2,38.7,39.2h58.7c21.5,0,39.6-17.6,39.6-39.2V415H685.5z"/>
</g>
<polyline fill="none" stroke="#CCCCCC" stroke-width="13" stroke-linecap="round" stroke-linejoin="round" stroke-miterlimit="10" points="
	727,483.6 707.4,464 727,444.4 "/>
<line fill="none" stroke="#CCCCCC" stroke-width="13" stroke-linecap="round" stroke-linejoin="round" stroke-miterlimit="10" x1="716" y1="464.5" x2="747" y2="464.5"/>
<rect x="823" y="395" fill="none" width="137" height="138"/>
<rect x="960" y="395" fill="none" width="137" height="138"/>
<g>
	<path fill="#CCCCCC" d="M920.8,425c16.6,0,29.2,12.5,29.2,29.1v19.6c0,16.6-12.6,29.3-29.2,29.3H862c-16.6,0-29-12.6-29-29.3v-19.6
		c0-16.6,12.4-29.1,29-29.1h59 M920.8,415H862c-21.6,0-39,17.6-39,39.2v19.6c0,21.6,17.4,39.2,39,39.2h58.8
		c21.6,0,39.2-17.6,39.2-39.2v-19.6C960,432.6,942.4,415,920.8,415L920.8,415z"/>
</g>
<polyline fill="none" stroke="#CCCCCC" stroke-width="13" stroke-linecap="round" stroke-linejoin="round" stroke-miterlimit="10" points="
	917.2,483.6 936.8,464 917.2,444.4 "/>
<line fill="none" stroke="#CCCCCC" stroke-width="13" stroke-linecap="round" stroke-linejoin="round" stroke-miterlimit="10" x1="928" y1="464.5" x2="897" y2="464.5"/>
<g>
	<defs>
		<circle id="SVGID_2_" cx="205.5" cy="463.9" r="68.5"/>
	</defs>
	<clipPath id="SVGID_3_">
		<use xlink:href="#SVGID_2_"  overflow="visible"/>
	</clipPath>
	
		<radialGradient id="SVGID_4_" cx="20.9781" cy="6.9496" r="6.9927" gradientTransform="matrix(9.7959 0 0 9.7959 0 395.4227)" gradientUnits="userSpaceOnUse">
		<stop  offset="0" style="stop-color:#FFFFFF"/>
		<stop  offset="9.771067e-02" style="stop-color:#DEDEDE"/>
		<stop  offset="0.2473" style="stop-color:#B2B2B2"/>
		<stop  offset="0.3987" style="stop-color:#8E8E8E"/>
		<stop  offset="0.5498" style="stop-color:#717171"/>
		<stop  offset="0.7005" style="stop-color:#5D5D5D"/>
		<stop  offset="0.8507" style="stop-color:#515151"/>
		<stop  offset="1" style="stop-color:#4D4D4D"/>
	</radialGradient>
	<rect x="137" y="395" clip-path="url(#SVGID_3_)" fill="url(#SVGID_4_)" width="137" height="137"/>
</g>
<g>
	<linearGradient id="SVGID_5_" gradientUnits="userSpaceOnUse" x1="964" y1="434.75" x2="1050.0615" y2="434.75">
		<stop  offset="0" style="stop-color:#4D4D4D"/>
		<stop  offset="0.1101" style="stop-color:#6A6A6A"/>
		<stop  offset="0.3317" style="stop-color:#9F9F9F"/>
		<stop  offset="0.539" style="stop-color:#C8C8C8"/>
		<stop  offset="0.7259" style="stop-color:#E6E6E6"/>
		<stop  offset="0.8858" style="stop-color:#F9F9F9"/>
		<stop  offset="1" style="stop-color:#FFFFFF"/>
	</linearGradient>
	<rect x="964" y="414" fill="url(#SVGID_5_)" width="86.1" height="41.5"/>
	<path fill="#CCCCCC" d="M1046.1,418v33.5H968V418H1046.1 M1054.1,410H960v49.5h94.1V410L1054.1,410z"/>
</g>
<g>
	
		<linearGradient id="SVGID_6_" gradientUnits="userSpaceOnUse" x1="969.1257" y1="434.75" x2="1055.1873" y2="434.75" gradientTransform="matrix(-1 0 0 -1 2062.1257 929)">
		<stop  offset="0" style="stop-color:#4D4D4D"/>
		<stop  offset="0.1101" style="stop-color:#6A6A6A"/>
		<stop  offset="0.3317" style="stop-color:#9F9F9F"/>
		<stop  offset="0.539" style="stop-color:#C8C8C8"/>
		<stop  offset="0.7259" style="stop-color:#E6E6E6"/>
		<stop  offset="0.8858" style="stop-color:#F9F9F9"/>
		<stop  offset="1" style="stop-color:#FFFFFF"/>
	</linearGradient>
	<rect x="1006.9" y="473.5" fill="url(#SVGID_6_)" width="86.1" height="41.5"/>
	<path fill="#CCCCCC" d="M1089,477.5V511h-78.1v-33.5H1089 M1097,469.5h-94.1V519h94.1V469.5L1097,469.5z"/>
</g>
<g>
	<g>
		<path fill="none" stroke="#CCCCCC" stroke-width="8" stroke-miterlimit="10" d="M1087.6,465.4c0-18.8-12.6-30.6-29.6-30.6"/>
		<g>
			<polygon fill="#CCCCCC" points="1097.1,454.6 1087.6,464.1 1078.1,454.6 1078.1,462.6 1087.6,472.1 1097.1,462.6 			"/>
		</g>
		<g>
			<polygon fill="#CCCCCC" points="1068.8,425.3 1059.3,434.8 1068.8,444.2 1060.8,444.2 1051.3,434.8 1060.8,425.3 			"/>
		</g>
	</g>
</g>
<g>
	<g>
		<path fill="none" stroke="#CCCCCC" stroke-width="8" stroke-miterlimit="10" d="M972.4,462.6c0,18.8,12.6,30.6,29.6,30.6"/>
		<g>
			<polygon fill="#CCCCCC" points="962.9,473.4 972.4,463.9 981.9,473.4 981.9,465.4 972.4,455.9 962.9,465.4 			"/>
		</g>
		<g>
			<polygon fill="#CCCCCC" points="991.2,502.7 1000.7,493.2 991.2,483.8 999.2,483.8 1008.7,493.2 999.2,502.7 			"/>
		</g>
	</g>
</g>
</svg>
