<?xml version="1.0" encoding="utf-8"?>
<!-- Generator: Adobe Illustrator 18.1.1, SVG Export Plug-In . SVG Version: 6.00 Build 0)  -->
<!DOCTYPE svg PUBLIC "-//W3C//DTD SVG 1.1//EN" "http://www.w3.org/Graphics/SVG/1.1/DTD/svg11.dtd">
<svg version="1.1" id="レイヤー_1" xmlns="http://www.w3.org/2000/svg" xmlns:xlink="http://www.w3.org/1999/xlink" x="0px"
	 y="0px" viewBox="0 0 11 17.4" enable-background="new 0 0 11 17.4" xml:space="preserve">
<g>
	<path fill="#FFFFFF" d="M5.5,15.8C4.4,14.2,1,9.2,1,5.5C1,3,3,1,5.5,1C8,1,10,3,10,5.5C10,9.2,6.7,14.2,5.5,15.8z"/>
	<path fill="#999999" d="M5.5,1.5c2.2,0,4,1.8,4,4c0,3.2-2.7,7.4-4,9.4c-1.4-2-4-6.2-4-9.4C1.5,3.3,3.3,1.5,5.5,1.5 M5.5,0.5
		c-2.8,0-5,2.2-5,5c0,4.7,5,11.1,5,11.1s5-6.4,5-11.1C10.5,2.7,8.3,0.5,5.5,0.5L5.5,0.5z"/>
</g>
</svg>
