<?xml version="1.0" encoding="utf-8"?>
<!-- Generator: Adobe Illustrator 18.1.1, SVG Export Plug-In . SVG Version: 6.00 Build 0)  -->
<!DOCTYPE svg PUBLIC "-//W3C//DTD SVG 1.1//EN" "http://www.w3.org/Graphics/SVG/1.1/DTD/svg11.dtd">
<svg version="1.1" id="レイヤー_1" xmlns="http://www.w3.org/2000/svg" xmlns:xlink="http://www.w3.org/1999/xlink" x="0px"
	 y="0px" viewBox="0 0 390.9 158.1" enable-background="new 0 0 390.9 158.1" xml:space="preserve">
<g>
	<path fill="#FFFFFF" d="M163,148.6c0-0.4-0.4-0.8-0.8-0.8c-0.1,0-0.2,0-0.3,0.1l0,0c-2.5,0.5-7.7,0.7-9.7-4.3
		c-3.4-8.3-0.7-42.5,0-49c0.9-8.4,2.2-24.4,2.2-24.4l-0.1,0c1.1-17.1-11.2-26.4-27.7-24.9c-15,1.4-27.2,12.8-27.2,28.6
		c0,18.8,9.2,28.6,27.2,28.6c1.9,0,3.7-0.4,5.5-1.1c1-0.2,1.3,0.2,1.3,1.1l0,0c0,0.2,0,0.5,0,0.7c-1,20.4-2.9,54.9,13.7,54.9
		c9.1,0,15.2-4.3,16-9.4l0,0C163,148.7,163,148.6,163,148.6 M122.5,87.7c-5.3,0-9.6-3.6-9.6-11.5c0-6.4,4-11.7,9.6-12.1
		c8.3-0.6,10.1,5,9.6,12.1C131.6,82.5,128.8,87.7,122.5,87.7"/>
	<path fill="#FFFFFF" d="M257.7,52.9c-15.8,1.2-23.3,11-23.3,24.7c0,14.9,10.4,24.7,23.3,24.7c14.2,0,22.1-11.1,23.3-24.7
		C282.4,61.9,273.4,51.7,257.7,52.9 M254.6,89.6c-4.9,0-8.9-3.3-8.9-10.3c0-5.7,4-9.8,8.9-10.3c6.4-0.6,9.7,3.3,8.9,10.3
		C262.8,85,259.5,89.6,254.6,89.6"/>
	<path fill="#FFFFFF" d="M361.8,78c-0.3-0.2-0.5-0.6-0.5-1c0.1-0.6,0.6-1,1.2-0.9c1.9,0.3,3.9,0.3,5.5-0.2c4-1.1,5.6-3.3,5.1-6.4
		c-0.5-3.2-4.7-5.6-9.6-5.2c-5.6,0.5-10.1,5.3-10.1,11.7c0,8,3.7,12.5,9.3,12.4c4.3,0,9.2-1.5,11.7-6.3c0.2-0.3,0.5-0.6,1-0.6
		c0.4,0,0.8,0.3,1,0.7c2.1,6.1-1.1,14.4-10.1,16.1c-14.4,2.8-25.8-7.2-25.8-24.3c0-15.7,8.5-26.9,26.7-28.2c13.7-1,22,4.5,23.9,16.2
		c0.8,6.3-2.7,12.2-8.1,15.2c-6.7,3.8-15.1,3.3-20.6,0.8L361.8,78z"/>
	<path fill="#FFFFFF" d="M69.6,25.7H42.3c0.3-6.4,0.7-13,0.9-17l0,0l0-0.1c0.1-2.4,0.2-3.9,0.2-3.9c0,0,0-0.1,0-0.1L43.6,1
		c0-0.5-0.4-1-1-1h-3.8h-0.2h-8.8c-4.8,0-8.7,3.9-8.7,8.7c0,0,0,7.2,0.1,17H8.7c-4.8,0-8.7,3.9-8.7,8.7v3.3c0,3,2.4,5.3,5.3,5.3h16
		c0,10.3,0.1,20.8,0.1,28.2c0,20-3.2,49.4,16.8,49.4c11,0,18.4-5.2,19.3-11.3l0,0c0-0.1,0-0.1,0-0.2c0-0.5-0.4-1-1-1
		c-0.1,0-0.3,0-0.4,0.1h0c-3.1,0.6-7,0.9-11-4.2c-6.1-7.8-3.7-50.9-3.5-61h20.2c4.8,0,8.7-3.9,8.7-8.7v-7.6
		C70.5,26.2,70.1,25.7,69.6,25.7"/>
	<path fill="#FFFFFF" d="M245.3,108.5c0-0.5-0.4-1-1-1c-0.1,0-0.3,0-0.4,0.1l0,0c-3,0.6-7,0.9-11-4.2c-6.4-8.1-3.5-50.8-3.5-58.6
		c0-7.8,1.7-30.3,1.7-30.3c0,0,0,0,0-0.1l0.3-3.5c0-0.5-0.4-1-1-1h-3.9h-0.1h-6.9c-4.8,0-8.7,3.9-8.7,8.7c0,0,0.3,35.4,0.3,55.3
		c0,20,1,45.3,14.9,46c10.9,0.6,18.4-5.2,19.3-11.3l0,0C245.3,108.7,245.3,108.6,245.3,108.5"/>
	<path fill="#FFFFFF" d="M337.9,63c-1.9-11.7-10.2-17.2-23.9-16.2c-2.5,0.2-4.8,0.6-6.9,1.1c-0.8,0.1-1.1-0.3-1-1.1c0-0.5-0.4-1-1-1
		h-3.5h-0.5h-6.1c-5.5,0-9.9,4.4-9.9,9.9c0,0,0.3,9.3,0.3,14.3c0,24.7,2.2,32.1,19.8,32.1c3.9,0,8.8-2.8,9.2-5.9l0,0
		c0,0,0-0.1,0-0.1c0-0.3-0.2-0.5-0.5-0.5c-0.1,0-0.1,0-0.2,0h0c-2.6,0.8-4.5,1.1-7-1.6c-3.2-3.5-2.7-16-2-24.9c0-1,0.5-1.9,1.3-2.4
		l0.1,0c1.3-0.8,2.8-1.3,4.4-1.4c4.9-0.4,9.1,2,9.6,5.1c0.5,3.2-1.1,5.4-5.1,6.4c-1.6,0.4-3.5,0.4-5.5,0.2c-0.6-0.1-1.1,0.3-1.2,0.9
		c-0.1,0.4,0.2,0.8,0.5,1l0.3,0.1c5.4,2.5,13.8,3,20.5-0.8C335.3,75.2,338.7,69.4,337.9,63"/>
	<path fill="#FFFFFF" d="M208.5,94.3c0-0.2-0.2-0.3-0.3-0.3c-0.1,0-0.1,0-0.1,0c-1.1,0.2-2.4,0.3-3.8-1.4c-0.8-1-1.3-3-1.4-5.3
		c0-2.3,0-5.8,0-5.8c0-0.1,0-0.1,0-0.2c0.1-1.1,0.1-2.2,0.1-3.4l0.6-24c0-0.5-0.5-1-1-1h-9.2c-4.8,0-8.5,3.9-8.2,8.7
		c0,0,0.5,12.1,0.3,18.8c-0.2,6.8-2.7,9.6-7.6,9.6c-3.6,0-5.7-3.7-5.6-9.1c0.2-10.4,0.1-24.9,0.1-24.9c-0.1-1.5-1.4-2.8-2.6-2.8
		h-4.6c-3.1,0-5.5,2.5-5.4,5.6l0,1.3c0,0-0.1,3.6-0.1,20c0,12.5,7.9,22.5,22,22.5c7.5,0,12.3-1.2,15.4-3.8l0,0
		c1-0.9,1.4-0.9,2.5-0.8l0.5,0.1l0,0c0.5,0.2,1.1,0.2,1.7,0.2C205.7,98.4,208.2,96.5,208.5,94.3L208.5,94.3
		C208.5,94.4,208.5,94.4,208.5,94.3"/>
	<path fill="#FFFFFF" d="M99.2,94.3c0-0.2-0.2-0.3-0.3-0.3c-0.1,0-0.1,0-0.1,0c-1.1,0.2-2.4,0.3-3.8-1.4c-0.8-1-1.3-3-1.4-5.3
		c0-2.3,0-5.8,0-5.8c0-0.1,0-0.1,0-0.2c0.1-1.1,0.1-2.2,0.1-3.4l0.6-24c0-0.5-0.5-1-1-1h-9.2c-4.8,0-8.5,3.9-8.2,8.7
		c0,0,0.5,12.1,0.3,18.8c-0.2,6.8-2.7,9.6-7.6,9.6c-3.6,0-5.7-3.7-5.6-9.1C63.1,70.5,63.1,56,63.1,56c-0.1-1.5-1.4-2.8-2.6-2.8h-4.6
		c-3.1,0-5.5,2.5-5.4,5.6l0,1.3c0,0-0.1,3.6-0.1,20c0,12.5,7.9,22.5,22,22.5c7.5,0,12.3-1.2,15.4-3.8l0,0c1-0.9,1.4-0.9,2.5-0.8
		l0.5,0.1l0,0c0.5,0.2,1.1,0.2,1.7,0.2C96.4,98.4,98.9,96.5,99.2,94.3L99.2,94.3C99.2,94.4,99.2,94.4,99.2,94.3"/>
</g>
</svg>
